# xmcd
#
# Track frame offsets:
# 150
# 12629
# 28385
# 41361
# 54750
# 68144
# 81154
# 96013
# 111278
# 123411
# 141142
# 157578
# 170979
# 186970
#
# Disc length: 2746 seconds
#
#
# Revision: 0
# Processed by: cddbd v1.5.2PL0 Copyright (c) Steve Scherf et al.
# Submitted via: FreeRIP 2.951 
#
DISCID=ba0ab80e
DTITLE=KALIBRE12 - UM TIRO DE AMOR NO SEU CORAÇÃO
DYEAR=2006
DGENRE=FORRÓ
TTITLE0=Fim_de_semana
TTITLE1=O_som_do_Brasi_l
TTITLE2=Inevitavel
TTITLE3=Mussa
TTITLE4=Quem_deve_Paga
TTITLE5=Credo_em_cruz
TTITLE6=Out_Door
TTITLE7=Primeiro_Amor
TTITLE8=Olhar_Sensual
TTITLE9=Obseção
TTITLE10=Amante_Amigo
TTITLE11=Jogo_doAmor
TTITLE12=Assim_O_destino_se_faz
TTITLE13=Dê_Notícias
EXTD=SEX-FELIZ NATAL-wzp/2006
EXTT0=
EXTT1=
EXTT2=
EXTT3=
EXTT4=
EXTT5=
EXTT6=
EXTT7=
EXTT8=
EXTT9=
EXTT10=
EXTT11=
EXTT12=
EXTT13=
PLAYORDER=
